<svg xmlns="http://www.w3.org/2000/svg" viewBox="0 0 1200 1600">
  <defs>
    <radialGradient id="bg" cx="50%" cy="35%" r="70%">
      <stop offset="0%" stop-color="#231912"/>
      <stop offset="60%" stop-color="#100c09"/>
      <stop offset="100%" stop-color="#070605"/>
    </radialGradient>
    <radialGradient id="halo" cx="50%" cy="45%" r="35%">
      <stop offset="0%" stop-color="#f0cb88" stop-opacity=".26"/>
      <stop offset="100%" stop-color="#f0cb88" stop-opacity="0"/>
    </radialGradient>
  </defs>
  <rect width="1200" height="1600" fill="url(#bg)"/>
  <circle cx="600" cy="560" r="360" fill="url(#halo)"/>
  <circle cx="600" cy="610" r="240" fill="#17110e" stroke="#d9a85d" stroke-opacity=".22" stroke-width="10"/>
  <path d="M485 760c0-120 49-215 115-215s115 95 115 215-49 190-115 190-115-70-115-190Z" fill="#d7c2ab" opacity=".86"/>
  <path d="M432 792c38-92 92-146 168-146s130 54 168 146c-47 85-102 128-168 128s-121-43-168-128Z" fill="#3f2e27"/>
  <path d="M520 493c24-34 53-51 80-51s56 17 80 51c28 39 27 95 2 138-19 34-49 57-82 57s-63-23-82-57c-25-43-26-99 2-138Z" fill="#efe3d4" opacity=".95"/>
  <path d="M507 557c20-6 40-10 61-10s41 4 61 10" stroke="#5b4336" stroke-width="10" stroke-linecap="round" opacity=".75"/>
  <path d="M541 627c18 11 35 17 59 17s41-6 59-17" stroke="#8a5d4a" stroke-width="12" stroke-linecap="round" opacity=".72"/>
  <circle cx="600" cy="520" r="220" fill="none" stroke="#e3b45f" stroke-opacity=".26" stroke-width="10"/>
  <circle cx="600" cy="520" r="250" fill="none" stroke="#b05a43" stroke-opacity=".18" stroke-width="6"/>
</svg>

