<svg xmlns="http://www.w3.org/2000/svg" viewBox="0 0 1200 1200">
  <rect width="1200" height="1200" fill="#090806"/>
  <circle cx="600" cy="600" r="420" fill="#17110e"/>
  <circle cx="600" cy="600" r="330" fill="#2a1715" opacity=".88"/>
  <path d="M360 575c44-68 100-104 162-104 45 0 82 18 108 49 26-31 63-49 108-49 62 0 118 36 162 104-35 95-87 165-166 237-36 33-69 58-104 81-35-23-68-48-104-81-79-72-131-142-166-237Z" fill="#f1e3cd" opacity=".92"/>
  <path d="M453 409c28 0 55 16 82 48 27-32 54-48 82-48 51 0 88 42 88 92 0 63-58 124-170 216-112-92-170-153-170-216 0-50 37-92 88-92Z" fill="#b05a43"/>
  <path d="M258 788c125-60 243-90 342-90s217 30 342 90" stroke="#e3b45f" stroke-opacity=".38" stroke-width="10" stroke-linecap="round"/>
</svg>

