<svg xmlns="http://www.w3.org/2000/svg" viewBox="0 0 512 512">
  <defs>
    <radialGradient id="g" cx="50%" cy="40%" r="70%">
      <stop offset="0%" stop-color="#f3d7b2"/>
      <stop offset="42%" stop-color="#b05a43"/>
      <stop offset="100%" stop-color="#17110e"/>
    </radialGradient>
  </defs>
  <rect width="512" height="512" fill="#0c0908"/>
  <circle cx="256" cy="248" r="178" fill="url(#g)" opacity=".88"/>
  <path d="M156 202c26-34 57-43 100-24 44-19 75-10 100 24 25 35 20 79-15 112-29 27-57 45-85 64-28-19-56-37-85-64-35-33-40-77-15-112Z" fill="#f5ead8" opacity=".9"/>
  <path d="M256 164c32 0 55 18 55 42 0 31-33 55-55 78-22-23-55-47-55-78 0-24 23-42 55-42Z" fill="#b05a43"/>
</svg>

